<?xml version="1.0" standalone="no"?>
<!DOCTYPE svg PUBLIC "-//W3C//DTD SVG 20010904//EN"
 "http://www.w3.org/TR/2001/REC-SVG-20010904/DTD/svg10.dtd">
<svg version="1.0" xmlns="http://www.w3.org/2000/svg"
 width="1280.000000pt" height="1183.000000pt" viewBox="0 0 1280.000000 1183.000000"
 preserveAspectRatio="xMidYMid meet">
<metadata>
Created by potrace 1.15, written by Peter Selinger 2001-2017
</metadata>
<g transform="translate(0.000000,1183.000000) scale(0.100000,-0.100000)"
fill="#000000" stroke="none">
<path d="M4133 11820 c-93 -17 -268 -79 -526 -186 -138 -58 -376 -154 -527
-214 -326 -128 -398 -160 -522 -234 -51 -31 -133 -72 -183 -92 -111 -44 -194
-86 -360 -180 -196 -110 -276 -145 -342 -151 -32 -3 -155 4 -273 16 -167 16
-711 61 -743 61 -8 0 -135 -189 -175 -260 -17 -30 -36 -74 -42 -98 -6 -24 -42
-110 -81 -192 -115 -246 -168 -428 -190 -655 -13 -135 -6 -402 11 -452 13 -36
43 -44 56 -15 4 9 11 152 14 317 7 336 4 319 105 578 117 304 239 552 340 694
1 2 136 -9 301 -24 203 -18 370 -26 519 -27 265 -1 293 5 485 114 167 94 317
170 417 209 45 18 124 57 175 87 133 78 212 114 493 223 138 54 363 145 500
203 295 124 365 151 465 177 162 43 224 38 320 -24 76 -50 291 -158 543 -271
623 -282 884 -432 952 -549 39 -65 36 -95 -14 -152 -72 -81 -228 -207 -418
-337 -215 -147 -241 -138 -191 67 l23 89 -27 23 c-30 26 -92 50 -538 215 -168
62 -326 115 -352 118 -51 5 -46 11 -63 -73 -4 -17 -18 -30 -48 -43 -23 -10
-84 -51 -136 -90 -69 -52 -105 -73 -135 -77 -76 -12 -410 60 -499 107 -33 18
-59 23 -119 23 -93 0 -117 -15 -78 -47 40 -33 251 -130 420 -193 85 -32 184
-72 220 -90 89 -44 157 -59 431 -94 263 -34 446 -69 553 -108 75 -27 291 -132
284 -138 -2 -2 -73 3 -158 10 -196 19 -311 19 -353 1 -42 -17 -90 -73 -112
-129 -13 -34 -16 -67 -13 -134 4 -119 30 -173 103 -214 104 -58 109 -94 12
-92 -131 2 -529 86 -655 138 -170 71 -197 77 -347 82 -168 6 -270 -9 -448 -67
-175 -56 -233 -69 -354 -80 -116 -11 -163 -24 -163 -46 0 -27 51 -36 165 -30
127 6 244 33 425 99 68 25 125 45 127 44 1 -1 -16 -31 -39 -66 -43 -69 -78
-158 -78 -202 0 -37 -20 -79 -37 -79 -36 0 -58 -155 -30 -210 10 -21 23 -26
75 -33 47 -7 62 -13 62 -25 0 -28 -160 -179 -205 -192 -55 -17 -452 -27 -760
-18 -296 8 -333 15 -535 108 -313 145 -468 204 -517 198 -27 -3 -25 -5 34 -46
116 -79 300 -164 419 -192 22 -5 70 -29 105 -51 94 -62 136 -77 235 -89 101
-12 820 -29 1267 -30 163 -1 297 -3 297 -5 0 -2 -144 -176 -320 -386 -176
-210 -320 -385 -320 -388 0 -4 325 -200 722 -436 l722 -430 -78 -6 c-42 -4
-176 -10 -296 -14 l-218 -7 -229 -326 c-343 -490 -569 -790 -856 -1134 l-97
-117 32 -5 c18 -3 119 -8 223 -11 303 -9 572 -25 675 -40 115 -17 178 -37 340
-108 69 -30 193 -78 275 -106 245 -85 286 -112 610 -407 238 -215 365 -324
478 -407 42 -31 77 -63 77 -70 0 -6 -10 -68 -22 -137 -17 -96 -22 -167 -22
-305 -1 -215 8 -253 85 -340 90 -103 218 -306 514 -815 303 -520 436 -720 558
-838 89 -85 148 -110 297 -128 150 -17 428 -73 819 -164 167 -39 306 -69 308
-66 13 13 -13 48 -45 62 -174 73 -852 228 -1092 249 -128 12 -161 22 -209 68
-122 118 -306 398 -631 962 -260 451 -370 627 -469 749 -61 76 -75 133 -68
285 4 108 32 327 44 340 9 12 192 -184 348 -374 95 -115 187 -223 204 -239
l31 -30 26 25 c14 13 53 68 86 121 33 54 64 96 68 93 9 -5 202 -274 270 -374
23 -35 58 -96 76 -137 52 -112 45 -165 -33 -261 -19 -23 -32 -47 -28 -53 11
-17 107 -11 153 10 24 11 67 40 95 65 59 51 77 54 161 25 31 -11 99 -25 149
-30 122 -12 174 -28 211 -66 20 -20 14 -29 -33 -53 -84 -43 -409 -290 -476
-362 l-30 -32 35 7 c82 15 410 193 510 276 47 39 82 60 99 60 5 0 20 -21 33
-47 47 -95 243 -293 290 -293 32 0 20 34 -55 147 -87 131 -198 340 -332 623
l-97 205 -326 165 c-489 248 -600 318 -671 420 -36 53 -74 152 -92 237 -11 54
-11 64 4 87 17 25 22 26 101 26 81 0 86 1 144 40 33 22 119 94 190 159 151
137 184 157 263 154 105 -3 235 -78 548 -315 376 -287 453 -320 761 -335 194
-9 244 16 143 70 -29 16 -53 35 -53 44 0 8 23 41 50 73 67 77 94 140 86 197
-9 70 -39 115 -159 242 -109 115 -150 174 -162 233 -16 80 -125 143 -313 182
-145 31 -238 68 -325 130 -78 55 -137 81 -206 91 -98 13 -208 80 -521 316
-429 324 -573 441 -966 786 -181 159 -280 233 -381 286 l-82 42 100 180 c154
274 225 373 281 391 31 10 40 -8 54 -108 11 -85 15 -95 44 -119 48 -41 160
-81 516 -185 363 -106 471 -142 526 -179 52 -34 66 -60 77 -137 11 -79 19 -95
66 -137 96 -84 284 -142 735 -227 263 -49 449 -56 735 -25 281 30 623 74 950
121 608 88 1230 150 1497 150 129 0 148 -8 148 -60 0 -62 83 -112 385 -230 88
-34 165 -66 170 -72 6 -6 -34 -52 -115 -131 -135 -131 -195 -169 -284 -181
-27 -3 -52 -9 -55 -12 -3 -3 8 -18 26 -32 43 -37 663 -354 679 -348 27 10 184
118 228 157 26 23 55 58 66 78 21 42 85 105 152 149 85 58 170 175 267 369
112 225 182 415 210 572 58 320 49 781 -16 894 -11 19 -42 42 -83 63 -164 84
-554 228 -648 241 -58 7 -114 35 -262 128 -63 40 -143 87 -178 104 -52 26 -67
39 -82 74 -11 23 -20 59 -20 80 -1 164 -233 547 -484 801 -212 213 -498 401
-880 578 -192 88 -214 106 -316 258 -167 250 -382 687 -429 874 -29 118 -115
225 -219 274 -46 22 -71 27 -132 27 -145 -1 -251 -64 -265 -159 -4 -25 -21
-67 -39 -93 -31 -47 -31 -49 -34 -193 -6 -256 36 -465 121 -608 22 -37 79
-114 127 -172 159 -191 212 -289 244 -443 19 -89 21 -282 5 -359 -25 -116
-123 -264 -202 -305 -18 -9 -95 -20 -205 -28 -196 -16 -247 -24 -372 -59 -151
-43 -340 -72 -655 -101 -312 -29 -473 -53 -648 -96 -174 -44 -294 -59 -457
-59 l-145 1 26 22 c14 12 72 60 129 107 56 46 202 172 324 278 490 429 956
739 1418 943 101 44 202 93 226 107 36 23 42 31 37 52 -8 31 -42 77 -120 160
-34 36 -85 94 -115 130 -127 153 -193 210 -354 305 -55 32 -129 86 -165 119
-105 99 -288 213 -526 328 -223 107 -331 133 -443 104 -182 -46 -495 -184
-687 -301 -234 -144 -239 -145 -271 -72 -65 144 -285 283 -920 577 -312 145
-609 294 -670 336 -46 32 -62 37 -121 40 -37 1 -92 -1 -120 -6z m4994 -656
c62 -45 126 -165 263 -494 70 -166 140 -306 195 -386 25 -36 45 -72 45 -80 0
-58 160 -266 273 -356 21 -17 79 -46 130 -65 249 -92 642 -352 876 -577 193
-187 407 -500 486 -710 14 -38 33 -106 40 -152 15 -84 81 -255 100 -258 6 0
11 15 13 34 4 66 13 100 24 100 30 0 416 -279 477 -345 55 -59 61 -79 61 -188
0 -284 -138 -742 -351 -1170 -81 -162 -117 -217 -137 -210 -9 3 -90 39 -178
79 -135 61 -214 92 -311 120 -16 4 -17 70 -2 148 6 32 8 60 6 62 -7 7 -445
-14 -562 -27 -55 -6 -154 -22 -220 -35 -79 -17 -179 -28 -295 -34 -197 -11
-212 -12 -400 -46 -148 -26 -377 -58 -745 -103 -496 -62 -628 -74 -805 -75
-158 0 -196 4 -393 38 -120 20 -278 53 -351 71 -127 32 -138 37 -237 104 -105
73 -139 109 -139 148 0 38 12 53 59 78 58 29 75 48 66 75 -6 18 -2 20 32 20
21 0 76 -7 123 -16 117 -21 428 -30 586 -15 399 37 830 155 903 247 43 54 18
154 -38 154 -11 0 -48 -28 -83 -62 -114 -113 -369 -226 -553 -248 -195 -22
-508 -8 -684 32 -115 25 -193 21 -306 -16 -109 -36 -191 -42 -290 -22 -44 9
-246 66 -450 126 -203 60 -405 119 -447 131 -74 21 -78 24 -84 55 -3 18 -4 71
-3 117 4 74 7 88 33 121 85 113 263 114 731 5 116 -26 253 -53 305 -60 178
-22 677 14 945 67 63 13 343 118 490 185 13 6 -19 7 -85 4 -255 -14 -456 -49
-674 -116 -198 -61 -282 -72 -471 -66 -161 6 -207 13 -500 81 -337 77 -668 86
-767 21 -159 -105 -88 129 91 297 113 107 129 110 446 83 215 -19 318 -19 646
0 566 32 977 68 1019 90 36 18 92 84 135 157 48 81 48 92 3 96 -44 4 -78 -12
-183 -88 -178 -127 -197 -131 -710 -136 -220 -3 -566 -1 -768 3 l-369 8 160
186 160 186 210 6 c224 7 390 25 536 58 160 36 256 49 495 64 260 17 320 24
496 61 197 42 379 71 570 94 99 11 201 27 226 35 55 19 109 72 176 176 79 121
88 162 88 379 0 215 -15 283 -90 430 -53 101 -116 181 -278 347 l-118 122 3
348 c5 388 9 422 70 480 43 41 85 53 180 50 59 -2 83 -7 105 -23z m-2075 5
c146 -30 392 -141 569 -257 58 -38 167 -118 242 -179 76 -60 170 -127 209
-149 49 -26 103 -69 169 -134 94 -93 299 -326 299 -340 0 -4 -57 -33 -127 -65
-375 -170 -648 -333 -1042 -619 -526 -383 -777 -616 -1381 -1281 -146 -161
-292 -379 -495 -739 -163 -288 -258 -439 -304 -480 -19 -17 -26 -18 -82 -7
-183 36 -400 136 -736 339 -137 82 -401 240 -588 352 -390 233 -575 348 -575
359 0 21 248 346 429 563 400 478 931 1004 931 920 0 -10 -79 -113 -355 -462
-291 -367 -344 -439 -389 -521 -51 -97 -53 -122 -12 -238 19 -55 40 -134 47
-175 17 -106 8 -240 -20 -294 l-22 -42 25 -25 c13 -13 41 -26 62 -30 66 -10
235 -100 439 -236 108 -71 199 -129 204 -129 4 0 63 25 131 56 67 30 157 64
198 75 103 26 235 25 338 -2 100 -27 109 -26 153 9 87 70 182 216 202 313 14
69 76 193 168 337 152 238 180 329 121 396 -25 28 -32 47 -41 117 -6 46 -17
94 -25 106 -7 12 -45 38 -84 59 -130 68 -228 210 -251 364 -6 41 -19 93 -28
115 -23 53 -83 115 -110 115 -12 0 -43 -16 -68 -35 -83 -64 -122 -38 -78 51
31 64 88 111 153 128 75 20 88 31 133 109 74 125 349 391 470 452 71 36 101
33 171 -20 33 -24 78 -49 101 -55 60 -15 159 -64 252 -124 157 -102 189 -147
202 -278 3 -39 11 -72 18 -74 6 -3 55 9 107 26 105 33 167 38 221 15 48 -20
86 -19 151 4 74 26 174 93 279 187 49 43 104 88 123 99 l34 20 46 -47 c31 -33
54 -48 71 -48 26 0 125 57 196 113 60 47 68 73 78 244 6 109 14 170 29 214 12
33 18 69 15 79 -8 27 -152 160 -252 235 -117 87 -261 159 -350 175 -78 14
-139 6 -231 -32 -49 -20 -58 -21 -135 -10 -110 16 -202 48 -226 78 -35 45
-131 57 -218 28 -247 -81 -755 -383 -1099 -653 -136 -107 -238 -169 -249 -151
-21 34 117 157 470 417 464 341 875 576 1144 653 78 22 103 23 173 9z m-317
-365 c21 -43 38 -53 108 -68 109 -23 209 -27 347 -16 306 25 292 25 355 -4 50
-23 334 -234 365 -271 9 -11 9 -57 1 -184 -17 -259 -34 -312 -116 -358 -54
-31 -69 -29 -107 13 -18 20 -40 40 -49 44 -26 15 -88 -22 -234 -140 -213 -170
-255 -190 -255 -115 0 76 81 174 162 195 82 22 107 42 205 163 52 66 96 127
97 136 1 8 -11 19 -26 25 -43 15 -102 -9 -168 -69 -56 -51 -107 -85 -130 -85
-22 0 -8 29 28 56 58 44 92 86 103 126 7 27 29 54 79 99 40 35 70 70 70 81 0
29 -36 94 -66 117 -35 28 -96 45 -128 37 -14 -3 -37 -17 -52 -31 -33 -30 -39
-30 -104 -5 -61 24 -99 25 -167 5 -98 -29 -137 -70 -163 -175 -9 -34 -28 -60
-86 -118 -41 -41 -74 -77 -74 -81 0 -8 96 -102 153 -149 45 -38 68 -40 111 -7
18 13 55 30 83 36 45 11 55 10 78 -5 37 -24 28 -48 -25 -66 -25 -8 -57 -23
-72 -34 -32 -21 -108 -133 -108 -157 0 -9 31 -47 69 -84 98 -96 104 -136 14
-93 -42 20 -64 23 -167 23 l-120 0 -9 35 c-32 125 -357 373 -507 388 -27 2
-50 8 -50 11 0 4 20 24 45 44 25 21 45 46 45 56 0 18 -51 71 -87 90 -33 17
-63 13 -97 -13 -43 -33 -217 -132 -247 -141 -22 -6 -22 -5 6 19 17 13 107 71
200 127 376 226 445 272 445 294 0 12 -12 40 -27 63 -34 52 -60 54 -163 12
-40 -16 -75 -30 -78 -30 -14 0 30 36 101 81 200 129 382 183 412 123z m-2195
-119 c67 -43 112 -58 272 -90 208 -41 318 -91 318 -143 0 -33 -49 -139 -79
-169 -28 -29 -34 -29 -128 6 -93 34 -156 47 -284 60 -122 12 -157 30 -237 120
-68 76 -98 89 -107 46 -17 -83 -14 -78 -48 -72 -18 4 -67 13 -110 21 -43 8
-81 16 -83 19 -11 11 18 47 61 77 49 34 223 123 283 145 58 21 83 18 142 -20z
m1775 -155 c-3 -5 -34 -29 -68 -54 -81 -57 -777 -479 -782 -474 -8 7 367 281
492 360 196 122 385 211 358 168z m1135 -39 c27 -51 -5 -91 -103 -131 -59 -24
-62 -27 -67 -65 -12 -83 -75 -146 -172 -172 -104 -26 -218 -10 -232 35 -8 25
8 66 43 111 16 20 41 62 56 92 26 56 51 81 112 112 44 23 62 22 135 -13 34
-16 68 -30 73 -30 6 0 34 18 64 40 60 45 76 49 91 21z m-2561 -460 c57 -20
123 -33 196 -40 153 -14 219 -41 280 -113 58 -69 69 -133 34 -205 -34 -70 -56
-77 -259 -81 -96 -2 -213 -1 -259 3 -75 6 -87 10 -120 40 -20 18 -55 42 -77
53 -98 50 -123 134 -68 229 25 43 104 119 139 134 31 12 42 11 134 -20z m824
3 c25 -25 -115 -156 -190 -179 -37 -10 -29 25 15 67 37 36 150 118 162 118 4
0 9 -3 13 -6z m-1918 -385 c22 -6 90 -33 151 -60 123 -54 194 -74 296 -84 129
-12 139 -58 37 -158 -91 -89 -204 -132 -305 -117 -54 8 -84 37 -84 79 0 51
-19 63 -111 72 -46 4 -129 8 -184 9 -167 2 -207 31 -149 107 105 138 219 187
349 152z m1309 -169 c37 -14 33 -43 -10 -75 -35 -27 -36 -29 -32 -81 4 -42 13
-67 43 -110 22 -31 45 -58 53 -61 17 -7 45 8 100 52 44 35 85 45 98 23 4 -6
13 -49 20 -95 23 -160 130 -336 253 -416 81 -54 97 -77 110 -157 6 -34 22 -86
36 -117 14 -30 25 -63 25 -72 0 -29 -48 -119 -130 -245 -105 -163 -156 -258
-174 -327 -31 -120 -167 -339 -211 -339 -6 0 -24 14 -40 30 -36 38 -79 50
-178 50 -165 0 -279 -30 -419 -111 l-88 -50 -163 115 c-163 115 -317 206 -349
206 -9 0 -30 11 -46 25 -43 36 -56 95 -49 218 8 115 -1 166 -52 290 -36 90
-39 133 -12 186 68 131 829 1071 831 1024 0 -18 -81 -132 -208 -293 -63 -80
-122 -160 -131 -178 -15 -32 -15 -35 4 -48 62 -45 188 38 419 277 140 144 219
252 191 257 -25 5 -84 -40 -239 -183 l-141 -130 59 75 c110 142 176 219 201
236 41 27 183 42 229 24z m-1326 -191 c35 -14 23 -38 -34 -70 -73 -42 -191
-69 -294 -69 -113 0 -122 8 -94 88 l19 57 90 6 c106 7 280 0 313 -12z m223
-217 c-109 -145 -148 -164 -245 -121 -28 12 -86 24 -144 30 -124 12 -142 16
-142 34 0 21 48 43 152 66 104 24 356 66 405 68 l33 1 -59 -78z m-301 -185
c52 -14 59 -37 15 -49 -16 -4 -100 -8 -185 -8 -163 0 -215 7 -215 30 0 8 18
20 40 26 51 16 286 16 345 1z m8777 -1059 l244 -93 -6 -220 c-11 -380 -24
-610 -40 -686 -18 -86 -66 -208 -146 -374 -133 -276 -208 -394 -287 -448 -77
-54 -119 -96 -151 -151 -36 -64 -88 -111 -200 -179 l-85 -51 -232 120 -233
119 103 105 c56 58 123 130 148 160 162 194 368 602 478 945 84 264 126 518
115 691 -7 119 -1 154 27 154 11 0 130 -42 265 -92z m-8447 -863 c0 -9 -23
-46 -51 -82 -28 -37 -59 -85 -69 -108 -10 -22 -32 -69 -48 -105 -38 -85 -96
-160 -260 -339 -74 -80 -143 -164 -154 -186 -30 -59 -118 -182 -182 -253 -31
-35 -56 -71 -56 -82 0 -34 -56 -85 -135 -124 -43 -20 -75 -39 -73 -42 3 -2 94
-24 202 -48 109 -24 200 -47 203 -50 4 -3 -112 -6 -256 -6 -207 0 -261 3 -255
13 5 6 60 75 124 152 142 170 296 376 542 720 215 301 303 417 379 498 53 56
89 73 89 42z m580 -11 c275 -40 615 -137 780 -220 95 -49 190 -123 426 -329
350 -306 898 -733 1291 -1004 219 -152 208 -131 131 -244 -41 -61 -198 -267
-203 -267 -2 0 -58 26 -126 59 -142 67 -206 86 -340 101 -116 13 -241 0 -304
-30 -64 -31 -153 -167 -186 -285 -22 -77 -19 -388 4 -485 31 -132 93 -240 138
-240 30 0 39 -22 23 -55 -17 -37 -162 -225 -172 -225 -4 0 -27 29 -52 63 -154
213 -339 414 -560 611 -69 61 -192 171 -275 246 -437 394 -559 497 -667 558
-30 18 -86 38 -124 46 -86 18 -181 52 -326 117 -154 69 -269 113 -363 138
-101 28 -150 56 -170 97 -20 43 -7 72 46 102 69 40 228 255 300 407 34 70 59
104 135 183 51 53 94 101 94 105 0 5 -24 5 -54 2 -34 -5 -56 -3 -60 4 -12 18
39 41 115 50 65 9 76 13 100 42 22 28 34 33 83 37 36 3 55 9 53 16 -2 6 -31
27 -64 46 -104 61 -117 74 -119 115 -1 22 -11 46 -25 61 -12 13 -20 27 -16 30
3 3 54 1 114 -6 141 -15 207 -11 211 13 11 57 -28 87 -112 87 -48 0 -113 16
-121 31 -9 14 12 37 38 43 37 8 246 -3 357 -20z m3165 -1780 c60 -9 112 -18
114 -20 8 -7 -132 -155 -160 -169 -15 -8 -45 -15 -66 -15 -85 1 -286 71 -299
105 -9 21 48 81 101 107 46 22 122 20 310 -8z m239 -134 c43 -47 45 -78 10
-111 -15 -13 -47 -55 -72 -92 -63 -96 -176 -176 -291 -207 -74 -20 -111 -6
-272 102 -82 55 -170 108 -196 118 -42 16 -48 22 -46 46 2 31 43 77 82 94 33
13 61 7 236 -54 147 -52 266 -74 316 -60 25 7 35 18 45 47 7 21 23 52 35 68
21 30 94 89 109 89 4 0 24 -18 44 -40z m-1416 -40 c67 -24 106 -50 111 -75 2
-13 -36 -57 -126 -144 -137 -134 -217 -189 -281 -198 -70 -9 -162 36 -162 80
0 39 82 186 139 249 95 104 194 132 319 88z m1627 -250 c29 -28 59 -65 66 -82
11 -27 10 -32 -6 -44 -10 -8 -28 -14 -40 -14 -18 0 -46 -17 -142 -86 -13 -9
-30 -14 -38 -10 -25 9 -57 92 -50 127 6 28 82 133 109 151 24 17 50 6 101 -42z
m-298 -152 c5 -7 15 -31 21 -53 13 -47 71 -119 113 -141 28 -14 30 -13 71 24
72 65 129 102 160 102 40 0 36 -21 -16 -70 -61 -58 -91 -77 -161 -99 -124 -40
-237 -34 -323 15 -55 33 -71 64 -48 98 65 100 155 160 183 124z m-1409 -777
c106 -70 302 -271 359 -368 30 -52 25 -99 -13 -114 -60 -22 -141 53 -274 253
-79 117 -120 190 -134 236 -10 30 9 29 62 -7z m472 -271 c18 0 70 -53 70 -70
0 -37 -22 -31 -66 15 -45 49 -56 72 -28 61 9 -3 19 -6 24 -6z m211 -209 c54
-56 104 -136 94 -151 -24 -39 -305 51 -305 99 0 21 25 46 78 77 58 35 79 30
133 -25z"/>
<path d="M11085 8123 c-27 -7 -138 -31 -245 -53 -441 -88 -524 -112 -778 -226
-188 -85 -325 -133 -397 -141 -77 -8 -115 -22 -115 -43 0 -25 28 -32 110 -31
175 3 449 87 569 175 26 20 61 40 77 46 44 17 177 38 289 45 258 16 360 41
453 109 61 45 111 111 96 126 -5 4 -31 1 -59 -7z"/>
<path d="M4699 8797 c-109 -43 -150 -80 -202 -183 -39 -76 -52 -165 -37 -239
11 -51 20 -67 71 -120 33 -34 59 -69 59 -78 0 -25 42 -32 173 -30 111 1 123 3
183 33 99 49 159 136 183 266 14 75 1 129 -34 138 -24 6 -45 53 -45 102 0 33
-30 51 -95 59 -72 9 -93 19 -105 51 -8 20 -16 24 -52 23 -24 0 -68 -10 -99
-22z m166 -106 c67 -32 99 -62 109 -104 5 -20 17 -33 41 -43 30 -12 35 -19 35
-47 -1 -76 -88 -199 -171 -241 -119 -59 -226 -22 -313 108 -31 46 -35 113 -11
193 21 70 41 91 104 108 30 8 64 23 75 35 28 27 60 25 131 -9z"/>
<path d="M5435 8399 c-45 -40 -144 -163 -276 -344 -163 -223 -190 -279 -166
-337 13 -32 78 -98 96 -98 28 0 506 599 549 687 8 17 12 38 9 46 -9 23 -92 68
-135 74 -33 4 -44 1 -77 -28z m95 -64 c0 -15 -48 -98 -101 -175 -71 -105 -294
-384 -339 -425 l-33 -30 7 35 c8 45 67 143 163 272 88 119 223 279 260 308 25
19 43 26 43 15z"/>
<path d="M4980 6738 c-181 -186 -893 -1148 -925 -1249 -10 -32 9 -45 38 -26
32 21 78 78 162 202 78 114 378 514 584 780 145 187 213 290 209 314 -6 28
-27 21 -68 -21z"/>
<path d="M5104 6555 c-240 -245 -814 -1060 -814 -1156 0 -61 66 -1 155 142
173 276 323 486 555 774 153 190 212 273 207 289 -10 29 -41 14 -103 -49z"/>
<path d="M5434 6397 c-104 -79 -330 -324 -372 -404 -12 -22 -7 -53 9 -53 14 0
181 162 277 270 99 110 155 191 150 215 -2 14 -14 9 -64 -28z"/>
<path d="M5705 6181 c-146 -84 -345 -315 -328 -381 11 -43 50 -17 139 93 97
121 173 196 232 229 53 30 78 60 67 78 -11 18 -60 10 -110 -19z"/>
<path d="M5993 6045 c-12 -8 -42 -45 -67 -83 -24 -37 -95 -116 -155 -176 -89
-88 -111 -115 -111 -138 0 -54 44 -35 148 66 76 73 148 162 190 233 48 82 46
133 -5 98z"/>
<path d="M6274 5812 c-46 -34 -158 -171 -232 -285 -79 -122 -82 -154 -9 -94
97 79 324 362 314 391 -7 21 -33 17 -73 -12z"/>
<path d="M6552 5504 c-88 -44 -206 -175 -237 -265 -39 -110 -6 -103 84 16 79
103 154 176 212 206 48 24 57 39 34 56 -26 18 -33 17 -93 -13z"/>
<path d="M18 9549 c-10 -18 -13 -72 -12 -214 0 -206 7 -243 60 -312 48 -63
191 -123 294 -123 52 0 67 8 83 41 7 13 31 37 54 54 24 16 62 44 84 60 84 60
77 91 -19 88 -79 -2 -155 -33 -236 -98 -38 -30 -76 -55 -86 -55 -52 0 -132
175 -151 334 -24 196 -28 220 -42 234 -13 13 -17 12 -29 -9z"/>
<path d="M8430 4203 c0 -9 66 -51 125 -81 108 -53 442 -163 555 -182 185 -31
234 -49 388 -144 186 -115 429 -309 746 -595 233 -210 385 -336 513 -425 59
-41 118 -85 130 -98 l23 -24 -25 -33 c-13 -19 -96 -109 -183 -200 -228 -238
-282 -313 -324 -449 -28 -92 -59 -160 -119 -258 -28 -46 -64 -120 -80 -165
-36 -99 -60 -147 -95 -188 -39 -46 -54 -110 -54 -228 l0 -105 -84 79 c-107
100 -161 130 -260 143 -41 6 -230 43 -418 81 -606 124 -817 163 -988 184 -78
10 -54 -7 55 -38 279 -80 1069 -263 1276 -297 68 -11 138 -27 156 -35 48 -22
166 -138 197 -195 26 -48 27 -53 16 -108 -7 -31 -28 -100 -47 -152 -99 -271
-92 -304 87 -395 60 -31 191 -110 290 -176 99 -65 180 -113 180 -106 0 37 33
390 46 497 23 179 54 289 127 452 36 79 84 199 106 267 94 283 369 805 504
956 56 64 155 132 203 141 19 3 34 11 34 17 0 41 -314 277 -475 357 -189 94
-465 303 -766 582 -396 366 -534 469 -826 619 -142 73 -203 95 -322 118 -93
18 -252 62 -511 140 -155 47 -180 53 -180 44z m2676 -1629 c32 -19 101 -67
152 -106 108 -80 109 -59 -9 -183 -105 -110 -226 -309 -384 -630 -97 -197
-142 -308 -156 -379 -5 -28 -34 -104 -65 -169 -96 -205 -118 -280 -164 -567
-46 -291 -66 -370 -93 -370 -7 0 -89 48 -183 106 -93 58 -186 115 -206 125
-32 16 -38 24 -38 52 1 39 23 137 83 367 25 96 53 220 61 275 19 129 46 205
166 455 111 232 144 307 171 395 32 103 159 271 361 474 101 103 209 191 232
191 7 0 39 -16 72 -36z"/>
</g>
</svg>
